<?xml version="1.0" encoding="utf-8"?>
<!-- Generator: Adobe Illustrator 21.0.2, SVG Export Plug-In . SVG Version: 6.00 Build 0)  -->
<svg version="1.1" id="Layer_7" xmlns="http://www.w3.org/2000/svg" xmlns:xlink="http://www.w3.org/1999/xlink" x="0px" y="0px"
	 viewBox="0 0 2044.2 2044.2" style="enable-background:new 0 0 2044.2 2044.2;" xml:space="preserve">
<style type="text/css">
	.st0{fill:#F7941D;}
	.st1{fill:#FFFFFF;}
</style>
<title>BitcoinLogo</title>
<circle class="st0" cx="1022.1" cy="1022.1" r="1022.1"/>
<path class="st1" d="M1424.1,1286.7v-1.2v-0.2c0.2-1.1,0.5-2.2,0.7-3.4v-0.1v-0.1v-0.1v-0.1v-0.1v-0.1v-0.2
	c8.6-43.6,3.7-86.3-11.7-122.3v-0.1c-0.5-1.1-1-2.3-1.5-3.4l-0.7-1.5l-0.5-1.1l-0.2-0.5l-0.5-1l-0.2-0.5l-0.5-1l-0.2-0.5l-0.5-1.1
	l-0.3-0.5l-0.5-1.1l-0.3-0.5l-0.6-1.1l-0.3-0.5l-0.1-1.1l-0.3-0.6l-0.6-1.1l-0.3-0.6l-0.6-1.1l-0.3-0.6l-0.6-1.1l-0.3-0.6l-0.6-1.2
	l-0.3-0.6l-0.7-1.2l-0.3-0.6l-0.7-1.2l-0.3-0.6l-0.7-1.2l-0.3-0.6l-0.7-1.2l-0.4-0.6l-0.7-1.2l-0.4-0.6l-0.8-1.2l-0.4-0.6l-0.8-1.3
	l-0.4-0.6l-0.8-1.3l-0.4-0.6l-0.8-1.3l-0.4-0.7l-0.8-1.3l-0.4-0.7l-0.9-1.3l-0.4-0.7l-0.9-1.3l-0.6-0.9v-0.1c-0.4-0.7-0.9-1.3-1.3-2
	c-18.6-27.1-41.7-50.8-68.2-70.2c12.7-4.3,25-9.6,36.9-15.8l1.9-1h0.1l0.9-0.5l1.2-0.7l0.6-0.3l1.2-0.7l0.6-0.3l1.2-0.7l0.6-0.3
	l1.2-0.7l0.6-0.3l1.2-0.7l0.6-0.3l1.1-0.7l0.6-0.3l1.1-0.7l0.5-0.3l1.1-0.7l0.5-0.3l1.1-0.7l0.5-0.3l1-0.7l0.5-0.3l1-0.7l0.5-0.3
	l1-0.7l0.5-0.3l1-0.6l0.5-0.3l1-0.6l0.5-0.3l0.9-0.6l0.5-0.3l0.9-0.6l0.4-0.3l0.9-0.6l0.4-0.3l0.9-0.6l0.4-0.3l0.9-0.6l0.4-0.3
	l0.8-0.6l0.4-0.3l0.8-0.6l0.4-0.3l0.8-0.6l0.4-0.3l0.9-0.7l1.2-0.9c0.9-0.7,1.7-1.4,2.6-2.1h0.1c27.1-21.9,48.6-53.6,59.9-91.4v-0.1
	V907v-0.1v-0.1v-0.1v-0.1v-0.1v-0.1c0.3-1,0.6-2,0.8-3l0.1-0.2v-0.1v-0.1v-0.1V903v-0.9c0.4-1.4,0.8-2.8,1.1-4.3
	c0.4-1.4,0.7-2.9,1-4.3v-1.1v-0.2c0.2-1,0.4-2,0.6-3v-0.1V889v-0.1v-0.1v-0.1v-0.1v-0.1c7.7-38.7,3.3-76.7-10.4-108.8v-0.1
	c-0.4-1-0.9-2-1.3-3l-0.6-1.3l-0.5-1l-0.2-0.5l-0.4-0.9l-0.2-0.5l-0.4-0.9l-0.2-0.5l-0.5-0.9l-0.2-0.5l-0.5-1l-0.2-0.5l-0.5-1
	l-0.2-0.5l-0.5-1l-0.3-0.5l-0.5-1l-0.3-0.5l-0.5-1l-0.3-0.5l-0.6-1l-0.3-0.5l-0.6-1l-0.3-0.5l-0.6-1l-0.3-0.5l-0.6-1l-0.3-0.5
	l-0.6-1.1l-0.3-0.5l-0.6-1.1l-0.3-0.5l-0.7-1.1l-0.3-0.5l-0.7-1.1l-0.3-0.6l-0.7-1.1l-0.3-0.6l-0.7-1.1l-0.3-0.6l-0.7-1.2l-0.4-0.6
	l-0.7-1.2l-0.4-0.6l-0.8-1.2l-0.4-0.6l-0.8-1.2l-0.6-0.8v-0.1l-1.2-1.8c-35.4-52-93.7-93.3-165.2-111l-18.6-4.6l45.3-183.2l-109-27
	l-45.1,182.5l-87.2-21.6L1091,390l-109-27l-45.1,182.5L712,490l-28.7,116.3l90.6,22.4c30,7.4,48.4,37.8,40.9,67.8c0,0,0,0,0,0
	l-120.9,489.3c-4.9,20-25.2,32.2-45.2,27.3l-79.4-19.6L508,1317.2l224.6,55.5l-44.4,182.5l109,26.9l45.1-182.6l87.2,21.6
	l-45.1,182.6l109,26.9l45.3-183.3c18.5,4.5,34.4,8.4,45.4,11.1c80.6,19.9,160.2,9.2,222.7-23.9l2.1-1.1h0.1l1-0.5l1.4-0.8l0.7-0.4
	l1.4-0.8l0.7-0.4l1.3-0.8l0.7-0.4l1.3-0.8l0.6-0.4l1.3-0.8l0.6-0.4l1.3-0.8l0.6-0.4l1.2-0.8l0.6-0.4l1.2-0.8l0.6-0.4l1.2-0.7
	l0.6-0.4l1.2-0.7l0.6-0.4l1.1-0.7l0.6-0.4l1.1-0.7l0.6-0.4l1.1-0.7l0.5-0.4l1.1-0.7l0.5-0.4l1-0.7l0.5-0.3l1-0.7l0.5-0.3l1-0.7
	l0.5-0.3l1-0.7l0.5-0.3l1-0.7l0.5-0.3l1-0.7l0.5-0.3l0.9-0.7l0.5-0.3l0.9-0.7l0.4-0.3l1-0.8l1.3-1c1-0.8,2-1.5,2.9-2.3l0.1-0.1
	c30.4-24.7,54.7-60.2,67.4-102.8v-0.1v-0.1v-0.1v-0.1v-0.1v-0.1v-0.1v-0.1c0.3-1.1,0.6-2.2,0.9-3.3l0.1-0.2v-0.1v-0.1v-0.1v-0.1
	v-0.1v-0.1v-0.1v-0.1v-0.1v-0.1v-0.1v-0.1v-0.1v-0.4c0.4-1.6,0.9-3.2,1.2-4.8C1422.7,1290,1423.3,1288.4,1424.1,1286.7z
	 M1016.1,696.2c18.6,4.6,95.3,24,120.7,30.2c40.3,10,73.3,32.3,93.5,60.1l0.7,0.9l0,0l0.3,0.4l0.4,0.6l0.2,0.3l0.4,0.6l0.2,0.3
	l0.4,0.6l0.2,0.3l0.4,0.6l0.2,0.3l0.4,0.6l0.2,0.3l0.4,0.6l0.2,0.3l0.4,0.6l0.2,0.3l0.4,0.6l0.2,0.3l0.4,0.6l0.2,0.3l0.3,0.6
	l0.2,0.3l0.3,0.6l0.2,0.3l0.3,0.6l0.2,0.3l0.3,0.5l0.2,0.3l0.3,0.5l0.2,0.3l0.3,0.5l0.2,0.3l0.3,0.5l0.2,0.3l0.3,0.5l0.1,0.3
	l0.3,0.5l0.1,0.2l0.3,0.5l0.1,0.2l0.3,0.5l0.1,0.2l0.3,0.5l0.1,0.2l0.2,0.5l0.1,0.2l0.3,0.5l0.4,0.7c0.3,0.5,0.5,1.1,0.8,1.6l0,0
	c8.3,18,10.6,38.2,6.7,57.7l0,0v0.3c-0.1,0.5-0.2,1.1-0.3,1.6v0.1v0.6c-0.2,0.8-0.3,1.5-0.5,2.3c-0.2,0.8-0.4,1.5-0.8,2.4v0.6v0.1
	c-0.2,0.5-0.3,1-0.4,1.6v0.3l0,0c-5.6,19-17.1,35.8-32.8,47.9l0,0l-1.4,1.1l-0.7,0.5l-0.5,0.3l-0.2,0.2l-0.4,0.3l-0.2,0.2l-0.5,0.3
	l-0.2,0.2l-0.5,0.3l-0.2,0.2l-0.5,0.3l-0.2,0.2l-0.5,0.3l-0.2,0.2l-0.5,0.3l-0.2,0.2l-0.5,0.3l-0.3,0.2l-0.5,0.3l-0.3,0.2l-0.5,0.3
	l-0.3,0.2l-0.5,0.3l-0.3,0.2l-0.6,0.3l-0.3,0.2l-0.6,0.3l-0.3,0.2l-0.6,0.3l-0.3,0.2l-0.6,0.3l-0.3,0.2l-0.6,0.3l-0.3,0.2l-0.6,0.3
	l-0.3,0.2l-0.6,0.3l-0.3,0.2l-0.6,0.3l-0.3,0.2l-0.7,0.3l-0.3,0.2l-0.7,0.3l-0.3,0.2l-0.7,0.3l-0.3,0.2l-0.7,0.3l-0.5,0.2l0,0
	l-1,0.5c-30.9,15.2-70.5,19.6-110.8,9.6c-25.4-6.3-102.3-24.9-120.9-29.5L1016.1,696.2z M1213.1,1227.3v0.6v0.1
	c-0.2,0.6-0.3,1.1-0.5,1.7l0,0v0.1l0,0l0,0v0.1v0.1v0.1l0,0c-6.4,20.9-19.6,39-37.6,51.4l0,0l-1.7,1.1l-0.8,0.5l-0.6,0.4l-0.3,0.2
	l-0.5,0.3l-0.3,0.2l-0.5,0.3l-0.3,0.2l-0.6,0.3l-0.3,0.2l-0.6,0.3l-0.3,0.2l-0.6,0.3l-0.3,0.2l-0.6,0.3l-0.3,0.2l-0.6,0.3l-0.3,0.2
	l-0.6,0.3l-0.3,0.2l-0.6,0.3l-0.3,0.2l-0.6,0.3l-0.3,0.2l-0.6,0.3l-0.3,0.2l-0.7,0.3l-0.3,0.2l-0.7,0.3l-0.3,0.2l-0.7,0.4l-0.3,0.2
	l-0.7,0.4l-0.3,0.2l-0.7,0.4l-0.4,0.2l-0.7,0.4l-0.4,0.2l-0.8,0.4l-0.4,0.2l-0.8,0.4l-0.4,0.2l-0.8,0.4l-0.4,0.2l-0.8,0.4l-0.4,0.2
	l-0.8,0.4l-0.6,0.2l0,0l-1.2,0.5c-36.1,15.8-82.7,19.7-130.4,7.9c-30.1-7.4-121.2-29.5-143.3-35l59.5-240.8
	c22.1,5.4,113,28.4,143.1,35.8c47.7,11.8,87.2,37,111.7,67.7l0.8,1l0,0l0.4,0.5l0.6,0.7l0.3,0.3l0.5,0.7l0.3,0.3l0.5,0.7l0.3,0.3
	l0.5,0.7l0.2,0.3l0.5,0.7l0.2,0.3l0.5,0.7l0.2,0.3l0.5,0.7l0.2,0.3l0.4,0.6l0.2,0.3l0.4,0.6l0.2,0.3l0.4,0.6l0.2,0.3l0.4,0.6
	l0.2,0.3l0.4,0.6l0.2,0.3l0.4,0.6l0.2,0.3l0.4,0.6l0.2,0.3l0.4,0.6l0.2,0.3l0.4,0.6l0.2,0.3l0.3,0.6l0.2,0.3l0.3,0.6l0.2,0.3
	l0.3,0.6l0.2,0.3l0.3,0.6l0.2,0.3l0.3,0.6l0.2,0.3l0.3,0.5l0.2,0.3l0.3,0.6l0.4,0.8c0.3,0.6,0.7,1.2,1,1.8l0,0
	c10.1,19.4,13.4,41.6,9.3,63l0,0v0.4c-0.1,0.6-0.2,1.1-0.3,1.7v0.1v0.6c-0.2,0.8-0.4,1.6-0.6,2.5
	C1214.2,1225.4,1213.8,1226.3,1213.1,1227.3L1213.1,1227.3z"/>
</svg>
